<?xml version="1.0" encoding="UTF-8"?>
<svg id="Layer_1" data-name="Layer 1" xmlns="http://www.w3.org/2000/svg" viewBox="0 0 1378.56 767.06">
  <defs>
    <style>
      .cls-1 {
        fill: #ffd70c;
      }
    </style>
  </defs>
  <g>
    <path class="cls-1" d="M860.67,404.12c-.2-.1-.3-.2-.5-.2,.2,0,.4,.1,.5,.2Z"/>
    <path class="cls-1" d="M1103.07,421.82h.2c-.5,.1-2.4,.3-2.6,.4,.8-.1,1.5-.2,2.2-.3,0-.1,.1-.1,.2-.1Z"/>
  </g>
  <path class="cls-1" d="M493.07,431.92c.3,3,4,6.4,11,10.7,5,3,14.3,7.3,22,8,5.1,.5,6.3-7.7,7.7-11.6,4-10.7,4.9-22.4,3-25.7-25.6-32.8-48.2-25.2-43.7,18.6Z"/>
  <path class="cls-1" d="M1323.07,455.12c-1-.1-1.7,.8-1.4,1.7,3.2,7.9,13.4,38.5,.6,82.5-6.7,23.2-11.1,41-38.1,86.4-25.1,36.9-35.8,39.7-38.4,36.6-3.4-4-1.6-18.5,2.1-32.4,2.4-8.4,5.4-17.9,8.9-28.2,1.7-4.9,3.6-10.4,5.6-16.3,15.3-40.6,29.9-68.6,17.3-88.9-13.6-22-50.6-29.9-51.2-26.8-.3,1.6,1.7,3.6,2.8,6.2,5.2,12.9,10.7,42.7-2.6,77.4-5.5,14.4-10,23.3-17.3,35.2-19.3,28.4-62.5,78.9-66.9,73.8-12.2-14.4,33.6-106.4,36.7-113.8,1.2-2.8,20.7-51.6-12.8-70.2-12.3-8.4-28.2-10.9-34.8-11.7-1.3-.1-2.3,1.2-1.8,2.4,3.2,7.4,10.7,30.1,2,66.2-1,4.3-2.2,8.8-3.5,13.4-.4,1.2-.7,2.4-1.1,3.6-16.8,19.2-37.6,33-37.6,33,0,0-3.2,2.6-8.1,6.5,9.3-23.9,28.1-79.2,18.5-115.4-13.8-51.9-87.9-20.7-101.3,18.3,0,0-58.1,0-68.9,112.9-10.6,110.9,100.4,110,144.6,1.9,.1-.1,.2-.1,.3-.2,21.1-13.8,36.2-26.7,47-38.4-12.1,38.2-32.2,85.1-21.3,108.7,3.7,7,8.4,12.3,17.6,15,6.7,2.6,13.1,2.3,23.5-.3,9.8-3.5,19.6-12.1,30.4-26.3,23.1-30.7,32.2-44.4,35.5-49.9-6.1,19.8-10.4,38.6-8.2,52.7,.1,.8,.1,1.5,.2,2.3,.1,0,.2,.1,.2,.1,.5,2.3,1.2,4.4,2.1,6.4,3.7,7,8.4,12.3,17.6,15,6.8,2.6,13.1,2.3,23.5-.3,7.4-2.7,30.3-17.4,44.3-33.2,91.8-109.7,92.2-162.1,88.3-171.4-12.8-17-45.9-33.4-54.3-34.5Zm-336.9,216.5c-22.2,0-25.1-78.3,8.1-124.1,0,0,7.9,55.6,50.2,60.6,0-.1-17,63.5-58.3,63.5Zm84.8-166.8c-10.4,69.7-20.8,84.7-21.5,86.2-41.2,1.4-34.9-59.6-34.9-59.6,4.1-58.1,38.1-69.7,47.7-66,14,5.2,8.7,39.4,8.7,39.4Z"/>
  <path class="cls-1" d="M1272.87,304.82c-1.9-28.7-17.2-54.8-43.4-67.7-18.7-9.3-40.1-12.2-60.8-12.2-3.2,0-6.5,.1-9.7,.2-53.7,5.8-96.1,34.7-123.2,60.7-5.9,5.6-11,11.1-15.4,16.2-5.2,6.1-9.7,10.3-13.4,13.3-.6,.5-1.3,1-2.1,1.6-.2,.2-.5,.4-.7,.5-2.8,1.9-5,3-6.9,3.5-7.7,2-10.5-5.7-11.5-11.8-1.4-21.1,13.1-64.6,13.1-66.3,0-2.2,24.4-68.2,30.8-85.3,1.1-2.8,.6-6-1.3-8.3-4.2-5.4-13.8-14.5-33.7-20.6-5.4-1.6-11.2,.2-14.7,4.5-15.8,19.6-60.9,78.6-88.4,143.2,14.3-38.6,39.4-115.8,19.1-132.1-19.6-15.7-41.1-17.9-44.4-18-.6,0-1.1,.6-.9,1.2,1.7,5.6,12.4,24,7.4,64-.3,2.1-.7,4.6-1.4,7.5-16.2,27-49.4,49-49.4,49,0,0-3.2,2.6-8.1,6.5,9.3-23.9,28-78.9,18.4-115-13.8-51.8-87.6-20.6-101,18.3,0,0-44.4,0-62.7,75.5-7.2,10-13.7,17.4-18.8,20.1-18.8,10.2-12.5-35.6-6.3-62.2-.3-3,10.3-39.9-22.1-39.6h-.1c-8.9,.1-18.1,8.1-28.3,24.4-4.8,7.7-9.8,17.4-15,28.8,3.8-21.9,8.3-37.8,3.7-50-11.8-31.3-48.3-35.7-50.4-35.8-.6,0-1,.6-.8,1.2,1.6,5.8,11.2,24.7,6.7,65.9-1.2,11.4-7.8,36.2-14.9,60.7-18.1,11.2-37.2,19.9-55.1,26.5,16.9-58.9,39.4-130.2,55.3-179.5,.9-2.5,1.9-5.3,3-8.3h-.3c5.4-15.1,12.3-36.2,16-48.9,.6-1.5,1.7-6.8,.7-9.8-10.4-33.5-67.8-28.9-98.4-21.2-30.2,7.5-68.7,32.8-69.4,54.5-.9,31.6,25.3,45.1,59.2,37.5,0,0-14.2-19.8-11.3-41.5,2.3-17.8,7.9-26.8,16.1-32.1,19.6-12.8,50,.7,44.5,23.3-11.2,33-27.8,81.5-44.5,134.3h.4c-4.2,13.2-8.4,26.7-12.5,40.2-28.4,24.9-117.5,76.9-41,79.6,6.1,.2,12.2,.3,18.4,.1-4.4,16.7-8.3,33-11.7,48.4-.7,3.4,.6,6.9,3.4,8.9l35.8,12.6c5.2,3.7,12.5,.5,13.4-5.8,2.1-14.9,8.9-42,17.9-74.4,2.4-.8,4.9-1.6,7.3-2.5,13-4.7,30.6-11.7,46.2-19.3-6.4,21.2-11.9,38.7-13,41.8-1.8,5.4-3,11.6-3.7,16.5-.7,4.8,1.4,9.6,5.2,11.9,2.5,1.5,4.9,2.9,5.4,3.1,9.4,5.2,27.9,9.3,30.2,3,0,0,42.9-136.8,60.6-163.6,.9-1.4,1.7-2.7,2.5-3.9-8.9,45-11.5,92.4,18.4,97.8,5-.2,16.8,7,43.8-26.2-1.1,6.4-2,13.2-2.7,20.5-10.6,110.5,100.1,109.7,144.1,1.9,.1-.1,.2-.1,.3-.2,30.7-20.1,48.7-38.4,59.2-53.5-10.5,35.9-29.6,88.5-31.8,94.2-6.4,16.7-12.3,28,27.4,36.5,4.6,1,10-1.5,12.1-5.6,2.7-5.3,8.1-16.2,19.6-41,21.5-46.3,77.8-122.5,77.8-122.5,0,0-67.9,163-5,172.9,6.5-.2,20,6.1,67.1-43.2,27.5-25.8,99.4-98.8,170.8-54.5,5.4,3.7,10.3,8.1,14.5,13.1,12.5,15.7,17.7,35.8,17.3,55.6-.1,5.2-.6,10.4-1.4,15.5-.1,.4-.1,.8-.2,1.2-6,27-21.9,43-35.9,52.1-1.3,.7-2.7,1.4-4,2-3.8,1.9-7.6,3.6-11.5,5.3-1.9,.8-3.7,1.6-5.6,2.4-.1,0-.2,.1-.2,.1-1,.4-1.9,.8-2.9,1.1-3.9,1.5-7.9,3-11.9,4.3-1.9,.7-3.8,1.3-5.8,1.9-.8,.2-1.5,.4-2.3,.7h0c-4,1.2-8.1,2.3-12.1,3.4-3.8,1-7.7,1.8-11.5,2.8-.9,.2-1.7,.4-2.6,.6-2.1,.4-4.2,.9-6.4,1.3-4.1,.8-8.2,1.5-12.3,2.2-2.1,.3-4.3,.7-6.4,1h-.1q.1,0-.2,0c-.8,.2-1.8,.5-2.4,.3h-.1c-8.2,1.1-16.4,1.9-24.7,2.6-4.1,.3-8.2,.6-12.3,.8-2,.1-3.9,.2-5.9,.3-.2,0-.9,0-1.4,.1-.6,0-1.5,.1-1.8,.1-8.2,.3-16.4,.3-24.6,.2-15.5-.2-30.9-.9-46.3-2.2-3.7-.3-7.4-.6-11.1-1-.9-.1-1.9-.2-2.8-.3h-.1c.4,.1,.7,.1,0,0h0c-.4,0-.8,0-1.1-.1,0,0,.6,.1,1,.1-1.9-.2-3.9-.4-5.8-.6-6.9-.8-13.8-1.6-20.7-2.6-12.4-1.7-24.9-3.8-37.2-6.1-10.3-1.9-20.6-4-30.8-6.3-4.1-.9-8.2-1.9-12.2-2.8-.9-.2-1.7-.4-2.6-.6-.5-.1-.7-.2-.8-.2-.5-.2-.9-.3-1.4-.5-2.7-1-5.4-1.9-8.2-2.8,.8-5.5,.9-9.6,.3-11.5-5.3-16.7-26.4-28.5-54.9-31.9-1.3-.2-2.3,1.2-1.8,2.4,1.7,4,5.3,13.6,6.8,27.2-13.2-3.1-26.6-5.7-40-7.6-26.9-3.9-54.4-5.8-81.5-2.9-23.4,2.5-47.4,8.1-68.4,19.3-6.7,3.2-23.2,11.8-30.6,22.8-9.3,14-3,49.5,45.3,33.9,0,0-15.4-11.1-12.6-24.6,4.3-7.3,24.1-35.9,72.8-36.7,25.6-.4,53.4,3.5,75.9,7.8,11.2,2.4,22.3,5.1,33.4,8.2,2,.6,4,1.1,6,1.7-.6,6.3-1.7,13.1-3.6,20.2-6.6,25.3-39.9,141.3-55.6,197.4-13.2,17-25.8,30.7-34.7,34.9-29.8,14.1,0-73.7,0-76.1,0-2.2,24.4-68.2,30.8-85.3,1.1-2.8,.6-6-1.3-8.3-4.2-5.4-13.8-14.5-33.7-20.6-5.4-1.6-11.2,.2-14.7,4.5-15.8,19.6-60.9,78.6-88.4,143.2,14.3-38.6,39.4-115.8,19.1-132.1-19.6-15.7-41.1-17.9-44.4-18-.6,0-1.1,.6-.9,1.2,1.7,5.6,12.4,24,7.4,63.9-.8,6.4-3.6,17.1-7.3,29.6-22,33.2-55,80.4-70.2,88.9,0,0-30.6,27.3-8.3-31.4,22.3-58.8,49.6-119.2,36.4-140.7-10.9-17.7-36.8-21.9-45.7-22.9-1.3-.1-2.3,1.2-1.8,2.4,3.2,7.4,10.7,30,2,66-1.2,5.1-2.6,10.3-4.2,15.8-12.3,19.2-42.3,64.2-77.6,103.9-46.3,52.1,9.1-81.1,9.1-81.1,8.3-22.4,22-31,29.2-34,1.4-.6,1.3-2.7-.2-3.2-41-12.8-57-6.4-70.4,22.3-12.5,26.6-37.2,58.8-79.4,98.5s7.4-83.6,44.7-126.6c30.9-35.7,69.7-27,82.1-23,1.7,.6,3.3-1.2,2.6-2.8-2.9-6.7-11.2-19.9-35-28.8-57-21.4-133.2,62.9-153.9,141.5s22.3,81.1,43,73.7,78.6-77.8,78.6-77.8c-12,35.3-10.1,57.7-2.4,70.1-13.7,23.6-54.3,82-111.6,59.3-71.2-28.1-79.4-144-79.4-144,0,0,159.3-58.9,124.1-177.9-35.8-121.2-187-39.7-187-39.7,0,0-128.3,70.3-90.2,129.1,0,0,9.5,18.2,42.7,20.5,1.4,.1,2-1.8,.8-2.5-7.4-4.8-17.3-17.3-3-47.7,20.7-43.9,93.5-123.3,194.5-98.5,0,0,38.9,13.2,19,67s-92.8,103.9-122.6,108.9c0,0,16.3-54.2,55.5-107.7,1.3-1.8,.8-4.4-1.1-5.5-5.7-3.5-17.9-8.8-36.6-5.8-2,.3-3.7,1.4-4.9,3-12.7,17.9-79.3,116.5-103.6,254.4-.2,1.1,.2,2.1,1,2.9,4,4.2,17.5,17.8,29.2,26.4,2,1.5,4.9,.4,5.5-2.1,4.2-19.3,11.4-50.3,26.1-96,0,0,59.7,182.2,165.6,144.1,1.6-2.3,45.4-12,80.9-82.3,7.8,7.2,18.3,8.3,27.4,5,20.8-7.7,76.1-87.9,83.6-98.9-9.4,29.5-17.8,57.3-15.8,71.9,3.3,24.8,33.7,42.8,58.5,12.2,14.9-18.4,35.9-47.2,50.2-67.2-8.6,25.4-16.9,48.3-18.3,52-6.4,16.7-12.3,28,27.4,36.4,4.6,1,10-1.5,12.1-5.6,2.7-5.3,8.1-16.2,19.6-40.9,21.5-46.3,77.8-122.5,77.8-122.5,0,0-67.9,163-5,172.9,6.1-.2,21.3,8.2,58-36.1-3.3,11.4-8.4,20.9,24.3,41.5,5.4,2.8,9.2,.1,11.3-4.1,1.6-3.1,4.9-9.8,9.1-18.4,10.3,9,36.6,27.3,73.4,3.2,43.7-28.6,86-86.9,79.6-170.8,0,0-6.4-57.4-39.9-42.7,0,0-33.1,7.4-84.4,97.7,0,0,28.7-92.1,40.3-143.6,.1,0,.2,0,.3,.1,38.6,8.6,77.9,14.6,117.4,17.6,12,.9,24.1,1.5,36.2,1.8l-.6,.1s165.1,11.1,243.1-56.2c32.2-32.9,32.1-66.9,31.2-80.1Zm-865.8-16.5c-5.3,.6-9.8,.8-13.3,.7-9-.3-22.1-1-18.9-8.3,3.2-7.6,25.1-24.1,45.8-40.3-4.8,16-9.4,32.1-13.6,47.9Zm309.7,45.3c-22.1,0-25-78.1,8.1-123.7,0,0,7.9,55.4,50.1,60.4,0,0-16.9,63.3-58.2,63.3Zm84.6-166.2c-10.3,69.5-20.7,84.4-21.5,85.9-41.1,1.4-34.8-59.5-34.8-59.5,4.1-57.9,38-69.4,47.5-65.8,14.1,5.3,8.8,39.4,8.8,39.4Zm75.3,326.6c12.4-6.6,10.8,9.9,10.8,9.9-3.3,99.3-59.6,144.8-59.6,144.8-60.8,44.4-54.6,3.3-28.1-53,26.4-56.2,76.9-101.7,76.9-101.7Z"/>
</svg>